<?xml version="1.0" encoding="iso-8859-1"?>
<!-- Uploaded to: SVG Repo, www.svgrepo.com, Generator: SVG Repo Mixer Tools -->
<svg fill="#000000" height="800px" width="800px" version="1.1" id="Layer_1" xmlns="http://www.w3.org/2000/svg" xmlns:xlink="http://www.w3.org/1999/xlink" 
	 viewBox="0 0 511.998 511.998" xml:space="preserve">
<g>
	<g>
		<path d="M495.103,164.237c-5.443-14.175-27.721-77.859-113.573-131.453c-10.312-6.437-21.852-11.829-33.407-15.703
			c-2.734-1.057-5.659-1.122-8.337,0.175l-47.1,22.774L116.433,65.831c20.379-14.999,43.161-26.713,67.244-34.485
			c12.316-3.974,24.961-6.931,37.766-8.816c6.528-0.961,13.096-1.649,19.681-2.062c3.225-0.201,6.454-0.339,9.686-0.408
			c2.997-0.065,6.268,0.355,9.101-0.843c4.841-2.047,7.316-7.722,5.494-12.658c-2.178-5.901-7.625-6.625-13.142-6.545
			C239.548,0.2,226.846,1.317,214.3,3.385c-24.319,4.009-48.026,11.569-70.177,22.382c-43.186,21.081-80.551,54.69-105.848,95.569
			c-11.115,17.96-20.003,37.288-26.372,57.427c-4.839,12.336-7.183,26.39-9.115,39.423C0.933,230.698,0.004,243.353,0,256.001
			c0,12.296,0.875,24.593,2.623,36.765c0.702,4.887,0.686,11.253,4.605,14.828c3.451,3.148,8.743,3.481,12.553,0.754l179.833-86.953
			c-4.769,23.79,13.439,46.939,37.681,47.878c23.691,0.919,43.444-19.744,41.46-43.372c-1.146-13.656-9.525-26.033-21.712-32.274
			l72.096-34.86l132.123-19.339c29.105,51.078,37.949,112.526,24.708,169.777c-10.767,46.557-35.981,89.234-71.31,121.375
			c-35.574,32.364-80.811,53.407-128.532,59.511c-52.158,6.672-105.859-4.49-151.019-31.43
			c-22.423-13.376-42.591-30.478-59.445-50.42c-8.569-10.141-16.281-21.006-23.029-32.442c-3.176-5.383-6.078-12.071-13.624-10.874
			c-6.205,0.985-9.94,7.458-7.85,13.329c2.136,6.002,6.664,11.893,10.12,17.21c3.726,5.73,7.681,11.312,11.853,16.725
			c8.036,10.426,16.876,20.232,26.418,29.301c18.906,17.968,40.556,33.017,63.984,44.481
			c47.136,23.064,101.015,31.113,152.839,22.872c47.472-7.55,92.32-28.774,128.42-60.488
			c35.798-31.449,62.562-72.774,76.352-118.404C517.458,275.977,515.332,216.881,495.103,164.237z M88.257,90.185l144.424-21.141
			L39.334,162.532C51.078,135.412,67.765,110.916,88.257,90.185z M258.88,229.275c0,10.895-9.121,20.016-20.016,20.016
			c-10.895,0-20.016-9.121-20.016-20.016c0-10.895,9.121-20.016,20.016-20.016C249.759,209.259,258.88,218.379,258.88,229.275z
			 M322.719,139.638c-0.847,0.279-1.636,0.665-2.359,1.141L21.812,285.133c-3.938-31.986-1.336-64.726,7.763-95.65L344.524,37.198
			c29.834,12.067,57.202,30.363,79.74,53.341L322.719,139.638z M389.142,129.754l49.072-23.728
			c3.964,4.813,7.758,9.774,11.332,14.885L389.142,129.754z"/>
	</g>
</g>
<g>
	<g>
		<path d="M421.382,191.583c-15.921-5.713-34.137-0.502-44.712,12.669c-10.482,13.054-11.651,31.815-2.825,46.053
			c8.782,14.17,25.895,21.568,42.232,18.161c18.311-3.818,31.851-20.492,31.851-39.191
			C447.929,212.559,437.112,197.228,421.382,191.583z M407.897,249.291c-10.895,0-20.016-9.121-20.016-20.016
			c0-10.895,9.121-20.016,20.016-20.016c10.895,0,20.016,9.121,20.016,20.016C427.913,240.17,418.792,249.291,407.897,249.291z"/>
	</g>
</g>
<g>
	<g>
		<path d="M398.083,368.722c-17.122-13.471-40.44-18.692-61.716-20.307c-24.705-1.873-53.314,0.811-74.282,15.279
			c-8.742,6.029-2.689,20.192,7.714,18.04c4.424-0.917,8.57-4.67,12.778-6.434c4.984-2.088,10.209-3.581,15.491-4.697
			c23.523-4.971,49.776-3.351,72.234,5.447c4.461,1.747,8.828,3.838,12.81,6.517c3.75,2.523,6.739,6.47,11.635,6.469
			c5.211-0.001,9.67-4.193,9.991-9.387C405.044,374.684,401.668,371.541,398.083,368.722z"/>
	</g>
</g>
<g>
	<g>
		<path d="M262.085,363.694C278.425,352.418,257.536,366.831,262.085,363.694L262.085,363.694z"/>
	</g>
</g>
<g>
	<g>
		<circle cx="25.5" cy="341.176" r="10.008"/>
	</g>
</g>
<g>
	<g>
		<circle cx="289.377" cy="12.486" r="10.008"/>
	</g>
</g>
</svg>